<svg width="26" height="26" viewBox="0 0 26 26" fill="none" xmlns="http://www.w3.org/2000/svg">
<path d="M13 16.25V16.2608M13 9.75V11.9167V9.75Z" stroke="#FF3C3C" stroke-width="2.25" stroke-linecap="round" stroke-linejoin="round"/>
<path d="M5.41671 20.5833H20.5834C20.9369 20.5809 21.2844 20.4919 21.5956 20.3243C21.9069 20.1567 22.1724 19.9154 22.3689 19.6216C22.5655 19.3278 22.6872 18.9903 22.7234 18.6387C22.7597 18.2871 22.7093 17.9319 22.5767 17.6042L14.885 4.33334C14.6977 3.99469 14.423 3.71241 14.0896 3.51584C13.7562 3.31928 13.3762 3.21561 12.9892 3.21561C12.6022 3.21561 12.2222 3.31928 11.8888 3.51584C11.5554 3.71241 11.2807 3.99469 11.0934 4.33334L3.40171 17.6042C3.27165 17.9244 3.22007 18.2711 3.25129 18.6153C3.28251 18.9595 3.39561 19.2912 3.58117 19.5828C3.76672 19.8744 4.01933 20.1173 4.31791 20.2914C4.6165 20.4654 4.95239 20.5655 5.29754 20.5833" stroke="#FF3C3C" stroke-width="2.25" stroke-linecap="round" stroke-linejoin="round"/>
</svg>
