<svg width="38" height="42" viewBox="0 0 38 42" fill="none" xmlns="http://www.w3.org/2000/svg">
<path d="M19 24.5815C22.5208 24.5815 25.375 21.869 25.375 18.5229C25.375 15.1769 22.5208 12.4644 19 12.4644C15.4792 12.4644 12.625 15.1769 12.625 18.5229C12.625 21.869 15.4792 24.5815 19 24.5815Z" stroke="#00B341" stroke-width="4" stroke-linecap="round" stroke-linejoin="round"/>
<path d="M31.0211 29.5802L22.0047 38.149C21.2078 38.9056 20.1275 39.3306 19.0011 39.3306C17.8746 39.3306 16.7943 38.9056 15.9974 38.149L6.97888 29.5802C4.60148 27.3206 2.98247 24.4419 2.32659 21.3079C1.67072 18.1739 2.00742 14.9255 3.29414 11.9733C4.58085 9.02121 6.75979 6.498 9.5554 4.72276C12.351 2.94753 15.6378 2 19 2C22.3622 2 25.649 2.94753 28.4446 4.72276C31.2402 6.498 33.4191 9.02121 34.7059 11.9733C35.9926 14.9255 36.3293 18.1739 35.6734 21.3079C35.0175 24.4419 33.3985 27.3206 31.0211 29.5802V29.5802Z" stroke="#00B341" stroke-width="4" stroke-linecap="round" stroke-linejoin="round"/>
</svg>
